<svg xmlns="http://www.w3.org/2000/svg" xmlns:xlink="http://www.w3.org/1999/xlink" width="500" zoomAndPan="magnify" viewBox="0 0 375 374.999991" height="500" preserveAspectRatio="xMidYMid meet" version="1.0"><defs><clipPath id="2adda64986"><path d="M 0 0 L 375 0 L 375 374.828125 L 0 374.828125 Z M 0 0 " clip-rule="nonzero"/></clipPath><clipPath id="682ba533f1"><path d="M 0.164062 0 L 375 0 L 375 374.828125 L 0.164062 374.828125 Z M 0.164062 0 " clip-rule="nonzero"/></clipPath><clipPath id="d3503b6629"><path d="M 0.164062 187 L 188 187 L 188 374.828125 L 0.164062 374.828125 Z M 0.164062 187 " clip-rule="nonzero"/></clipPath><clipPath id="dbc233d0a6"><path d="M 0.164062 0 L 375 0 L 375 374.828125 L 0.164062 374.828125 Z M 0.164062 0 " clip-rule="nonzero"/></clipPath><clipPath id="5b4e9c1bb8"><rect x="0" width="375" y="0" height="375"/></clipPath></defs><g clip-path="url(#2adda64986)"><g transform="matrix(1, 0, 0, 1, 0, 0)"><g clip-path="url(#5b4e9c1bb8)"><g clip-path="url(#682ba533f1)"><path fill="#cb6ce6" d="M 93.984375 -0.921875 C 145.882812 -0.921875 187.957031 41.152344 187.957031 93.054688 L 187.957031 187.027344 L 187.949219 187.027344 L 187.964844 187.035156 L 281.941406 187.035156 C 333.839844 187.035156 375.914062 229.109375 375.914062 281.011719 C 375.914062 332.914062 333.839844 374.984375 281.941406 374.984375 L 187.957031 374.984375 L 187.957031 374.992188 L 0 374.992188 L 0 93.054688 C 0 41.152344 42.082031 -0.921875 93.984375 -0.921875 Z M 93.984375 -0.921875 " fill-opacity="1" fill-rule="nonzero"/></g><g clip-path="url(#d3503b6629)"><path fill="#750096" d="M 187.957031 187.035156 L 0 187.035156 L 0 374.992188 L 187.957031 374.992188 Z M 187.957031 187.035156 " fill-opacity="1" fill-rule="nonzero"/></g><g clip-path="url(#dbc233d0a6)"><path fill="#cb6ce6" d="M 0 93.054688 L 0 187.027344 L 187.957031 187.027344 L 187.957031 93.054688 C 187.957031 41.152344 145.882812 -0.921875 93.984375 -0.921875 C 42.082031 -0.921875 0 41.152344 0 93.054688 Z M 375.914062 281.011719 C 375.914062 332.914062 333.839844 374.984375 281.941406 374.984375 L 187.964844 374.984375 L 187.964844 187.035156 L 281.941406 187.035156 C 333.839844 187.035156 375.914062 229.109375 375.914062 281.011719 Z M 38.011719 262 L 74.964844 262 L 74.964844 225.046875 L 112.992188 225.046875 L 112.992188 262 L 149.945312 262 L 149.945312 300.019531 L 112.992188 300.019531 L 112.992188 336.972656 L 74.972656 336.972656 L 74.972656 300.019531 L 38.019531 300.019531 L 38.019531 262 Z M 38.011719 262 " fill-opacity="1" fill-rule="nonzero"/></g></g></g></g></svg>