<svg xmlns="http://www.w3.org/2000/svg" xmlns:xlink="http://www.w3.org/1999/xlink" width="500" zoomAndPan="magnify" viewBox="0 0 375 374.999991" height="500" preserveAspectRatio="xMidYMid meet" version="1.0"><defs><g/><clipPath id="13d08aeba5"><path d="M 45 146 L 120 146 L 120 230 L 45 230 Z M 45 146 " clip-rule="nonzero"/></clipPath><clipPath id="05e57cf5a0"><path d="M 37.5 155.453125 L 114.644531 139.625 L 131.074219 219.707031 L 53.929688 235.535156 Z M 37.5 155.453125 " clip-rule="nonzero"/></clipPath><clipPath id="cf70a280c8"><path d="M 37.5 155.453125 L 114.644531 139.625 L 131.074219 219.707031 L 53.929688 235.535156 Z M 37.5 155.453125 " clip-rule="nonzero"/></clipPath><clipPath id="17a02f4483"><path d="M 52 169 L 119 169 L 119 228 L 52 228 Z M 52 169 " clip-rule="nonzero"/></clipPath><clipPath id="c110dbb2ca"><path d="M 37.5 155.453125 L 114.644531 139.625 L 131.074219 219.707031 L 53.929688 235.535156 Z M 37.5 155.453125 " clip-rule="nonzero"/></clipPath><clipPath id="87b6937d87"><path d="M 37.5 155.453125 L 114.644531 139.625 L 131.074219 219.707031 L 53.929688 235.535156 Z M 37.5 155.453125 " clip-rule="nonzero"/></clipPath><clipPath id="2c708a228f"><path d="M 90 164 L 112.300781 164 L 112.300781 179 L 90 179 Z M 90 164 " clip-rule="nonzero"/></clipPath><clipPath id="c2babd9859"><path d="M 78 162.042969 L 91 162.042969 L 91 195 L 78 195 Z M 78 162.042969 " clip-rule="nonzero"/></clipPath><clipPath id="3e52765a12"><path d="M 192.914062 144.171875 L 224.414062 144.171875 L 224.414062 175.671875 L 192.914062 175.671875 Z M 192.914062 144.171875 " clip-rule="nonzero"/></clipPath><clipPath id="c5a3155f95"><path d="M 208 160 L 224.414062 160 L 224.414062 175.671875 L 208 175.671875 Z M 208 160 " clip-rule="nonzero"/></clipPath><clipPath id="110ba0da3e"><path d="M 192.914062 144.171875 L 224.414062 144.171875 L 224.414062 175.671875 L 192.914062 175.671875 Z M 192.914062 144.171875 " clip-rule="nonzero"/></clipPath></defs><rect x="-37.5" width="450" fill="#ffffff" y="-37.499999" height="449.999989" fill-opacity="1"/><rect x="-37.5" width="450" fill="#f2f1ec" y="-37.499999" height="449.999989" fill-opacity="1"/><g clip-path="url(#13d08aeba5)"><g clip-path="url(#05e57cf5a0)"><g clip-path="url(#cf70a280c8)"><path fill="#a64cc0" d="M 119.371094 161.566406 C 110.105469 152.4375 96.605469 147.945312 82.90625 150.757812 C 61.066406 155.238281 46.996094 176.574219 51.476562 198.410156 C 54.753906 214.390625 67.054688 226.210938 81.976562 229.648438 C 64.554688 227.570312 49.636719 214.601562 45.917969 196.472656 C 41.269531 173.820312 55.867188 151.6875 78.519531 147.039062 C 94.300781 143.800781 109.832031 149.90625 119.371094 161.566406 Z M 119.371094 161.566406 " fill-opacity="1" fill-rule="nonzero"/></g></g></g><g clip-path="url(#17a02f4483)"><g clip-path="url(#c110dbb2ca)"><g clip-path="url(#87b6937d87)"><path fill="#eca9ff" d="M 118.550781 209.691406 C 113.699219 218.144531 105.382812 224.550781 95.085938 226.664062 C 76.042969 230.570312 57.4375 218.300781 53.53125 199.257812 C 51.234375 188.058594 54.527344 177.011719 61.507812 169.015625 C 57.386719 176.199219 55.765625 184.851562 57.5625 193.601562 C 61.46875 212.644531 80.074219 224.917969 99.117188 221.007812 C 106.964844 219.398438 113.660156 215.292969 118.550781 209.691406 Z M 118.550781 209.691406 " fill-opacity="1" fill-rule="nonzero"/></g></g></g><path fill="#a64cc0" d="M 90.640625 172.097656 C 92.074219 172.148438 93.277344 171.023438 93.324219 169.589844 C 93.375 168.15625 92.25 166.957031 90.816406 166.90625 C 89.382812 166.859375 88.183594 167.980469 88.132812 169.414062 C 88.085938 170.847656 89.210938 172.050781 90.640625 172.097656 Z M 90.640625 172.097656 " fill-opacity="1" fill-rule="nonzero"/><g clip-path="url(#2c708a228f)"><path fill="#eca9ff" d="M 91.441406 178.980469 C 95.0625 176.121094 105.269531 168.535156 112.1875 164.710938 C 105.324219 167.03125 94.320312 172.605469 90.03125 174.875 C 90.425781 175.898438 91.167969 177.972656 91.441406 178.980469 Z M 91.441406 178.980469 " fill-opacity="1" fill-rule="nonzero"/></g><path fill="#eca9ff" d="M 84.308594 185.746094 C 84.203125 183.429688 83.941406 181.175781 83.527344 178.980469 C 69.550781 189.902344 82.652344 200.121094 106.402344 209.3125 C 92.777344 198.824219 81.5 193.453125 84.308594 185.746094 Z M 84.308594 185.746094 " fill-opacity="1" fill-rule="nonzero"/><g clip-path="url(#c2babd9859)"><path fill="#a64cc0" d="M 86.070312 190.097656 C 86.722656 191.625 88.058594 193.183594 89.933594 194.851562 C 91.847656 183.929688 88.738281 169.492188 78.683594 162.0625 C 84.640625 172.253906 86.351562 181.480469 86.070312 190.097656 Z M 86.070312 190.097656 " fill-opacity="1" fill-rule="nonzero"/></g><path fill="#a64cc0" d="M 81.4375 212.925781 C 83.957031 210.527344 86.207031 206.84375 87.84375 202.5 C 86.773438 201.851562 85.769531 201.203125 84.847656 200.558594 C 83.996094 204.898438 82.789062 209.058594 81.4375 212.925781 Z M 81.4375 212.925781 " fill-opacity="1" fill-rule="nonzero"/><g clip-path="url(#3e52765a12)"><path fill="#a64cc0" d="M 216.722656 144.171875 C 212.339844 144.171875 208.789062 147.726562 208.789062 152.109375 L 208.789062 160.046875 L 200.851562 160.046875 C 196.46875 160.046875 192.914062 163.597656 192.914062 167.984375 C 192.914062 172.367188 196.46875 175.917969 200.851562 175.917969 L 224.660156 175.917969 L 224.660156 152.109375 C 224.660156 147.726562 221.105469 144.171875 216.722656 144.171875 Z M 216.722656 144.171875 " fill-opacity="1" fill-rule="nonzero"/></g><g clip-path="url(#c5a3155f95)"><path fill="#eca9ff" d="M 208.789062 160.046875 L 224.660156 160.046875 L 224.660156 175.917969 L 208.789062 175.917969 Z M 208.789062 160.046875 " fill-opacity="1" fill-rule="nonzero"/></g><g clip-path="url(#110ba0da3e)"><path fill="#a64cc0" d="M 224.660156 152.109375 L 224.660156 160.046875 L 208.789062 160.046875 L 208.789062 152.109375 C 208.789062 147.726562 212.339844 144.171875 216.722656 144.171875 C 221.105469 144.171875 224.660156 147.726562 224.660156 152.109375 Z M 192.914062 167.984375 C 192.914062 172.367188 196.46875 175.917969 200.851562 175.917969 L 208.785156 175.917969 L 208.785156 160.046875 L 200.851562 160.046875 C 196.46875 160.046875 192.914062 163.597656 192.914062 167.984375 Z M 221.449219 166.378906 L 218.332031 166.378906 L 218.332031 163.257812 L 215.117188 163.257812 L 215.117188 166.378906 L 211.996094 166.378906 L 211.996094 169.589844 L 215.117188 169.589844 L 215.117188 172.707031 L 218.328125 172.707031 L 218.328125 169.589844 L 221.449219 169.589844 Z M 221.449219 166.378906 " fill-opacity="1" fill-rule="nonzero"/></g><g fill="#a64cc0" fill-opacity="1"><g transform="translate(106.941852, 208.220977)"><g><path d="M 12.578125 0.3125 C 10.398438 0.3125 8.441406 -0.148438 6.703125 -1.078125 C 4.960938 -2.003906 3.59375 -3.328125 2.59375 -5.046875 C 1.601562 -6.773438 1.109375 -8.796875 1.109375 -11.109375 C 1.109375 -13.390625 1.613281 -15.398438 2.625 -17.140625 C 3.632812 -18.878906 5.015625 -20.210938 6.765625 -21.140625 C 8.515625 -22.066406 10.476562 -22.53125 12.65625 -22.53125 C 14.832031 -22.53125 16.796875 -22.066406 18.546875 -21.140625 C 20.304688 -20.210938 21.6875 -18.878906 22.6875 -17.140625 C 23.695312 -15.398438 24.203125 -13.390625 24.203125 -11.109375 C 24.203125 -8.828125 23.691406 -6.816406 22.671875 -5.078125 C 21.648438 -3.335938 20.253906 -2.003906 18.484375 -1.078125 C 16.722656 -0.148438 14.753906 0.3125 12.578125 0.3125 Z M 12.578125 -5.578125 C 13.878906 -5.578125 14.988281 -6.050781 15.90625 -7 C 16.820312 -7.957031 17.28125 -9.328125 17.28125 -11.109375 C 17.28125 -12.890625 16.832031 -14.253906 15.9375 -15.203125 C 15.050781 -16.160156 13.957031 -16.640625 12.65625 -16.640625 C 11.332031 -16.640625 10.234375 -16.164062 9.359375 -15.21875 C 8.484375 -14.28125 8.046875 -12.910156 8.046875 -11.109375 C 8.046875 -9.328125 8.472656 -7.957031 9.328125 -7 C 10.191406 -6.050781 11.273438 -5.578125 12.578125 -5.578125 Z M 12.578125 -5.578125 "/></g></g></g><g fill="#a64cc0" fill-opacity="1"><g transform="translate(132.299943, 208.220977)"><g><path d="M 10.90625 -22.53125 C 12.46875 -22.53125 13.835938 -22.210938 15.015625 -21.578125 C 16.203125 -20.941406 17.113281 -20.101562 17.75 -19.0625 L 17.75 -22.21875 L 24.5625 -22.21875 L 24.5625 -0.046875 C 24.5625 2.003906 24.15625 3.859375 23.34375 5.515625 C 22.539062 7.171875 21.304688 8.488281 19.640625 9.46875 C 17.984375 10.457031 15.921875 10.953125 13.453125 10.953125 C 10.160156 10.953125 7.492188 10.175781 5.453125 8.625 C 3.410156 7.070312 2.242188 4.96875 1.953125 2.3125 L 8.671875 2.3125 C 8.890625 3.15625 9.394531 3.820312 10.1875 4.3125 C 10.988281 4.8125 11.972656 5.0625 13.140625 5.0625 C 14.546875 5.0625 15.664062 4.65625 16.5 3.84375 C 17.332031 3.03125 17.75 1.734375 17.75 -0.046875 L 17.75 -3.1875 C 17.09375 -2.144531 16.175781 -1.300781 15 -0.65625 C 13.832031 -0.0078125 12.46875 0.3125 10.90625 0.3125 C 9.070312 0.3125 7.410156 -0.15625 5.921875 -1.09375 C 4.441406 -2.039062 3.269531 -3.378906 2.40625 -5.109375 C 1.539062 -6.847656 1.109375 -8.859375 1.109375 -11.140625 C 1.109375 -13.429688 1.539062 -15.4375 2.40625 -17.15625 C 3.269531 -18.882812 4.441406 -20.210938 5.921875 -21.140625 C 7.410156 -22.066406 9.070312 -22.53125 10.90625 -22.53125 Z M 17.75 -11.109375 C 17.75 -12.804688 17.28125 -14.144531 16.34375 -15.125 C 15.40625 -16.113281 14.257812 -16.609375 12.90625 -16.609375 C 11.550781 -16.609375 10.398438 -16.125 9.453125 -15.15625 C 8.515625 -14.1875 8.046875 -12.847656 8.046875 -11.140625 C 8.046875 -9.441406 8.515625 -8.09375 9.453125 -7.09375 C 10.398438 -6.101562 11.550781 -5.609375 12.90625 -5.609375 C 14.257812 -5.609375 15.40625 -6.097656 16.34375 -7.078125 C 17.28125 -8.066406 17.75 -9.410156 17.75 -11.109375 Z M 17.75 -11.109375 "/></g></g></g><g fill="#a64cc0" fill-opacity="1"><g transform="translate(159.330005, 208.220977)"><g><path d="M 16 -22.453125 C 18.601562 -22.453125 20.679688 -21.609375 22.234375 -19.921875 C 23.785156 -18.234375 24.5625 -15.921875 24.5625 -12.984375 L 24.5625 0 L 17.796875 0 L 17.796875 -12.0625 C 17.796875 -13.550781 17.410156 -14.707031 16.640625 -15.53125 C 15.867188 -16.351562 14.832031 -16.765625 13.53125 -16.765625 C 12.226562 -16.765625 11.191406 -16.351562 10.421875 -15.53125 C 9.660156 -14.707031 9.28125 -13.550781 9.28125 -12.0625 L 9.28125 0 L 2.46875 0 L 2.46875 -22.21875 L 9.28125 -22.21875 L 9.28125 -19.265625 C 9.96875 -20.253906 10.894531 -21.03125 12.0625 -21.59375 C 13.226562 -22.164062 14.539062 -22.453125 16 -22.453125 Z M 16 -22.453125 "/></g></g></g><g fill="#eca9ff" fill-opacity="1"><g transform="translate(186.172315, 208.220977)"><g><path d="M 19.859375 -4.9375 L 9.4375 -4.9375 L 7.765625 0 L 0.640625 0 L 10.75 -27.953125 L 18.625 -27.953125 L 28.75 0 L 21.53125 0 Z M 18.109375 -10.1875 L 14.65625 -20.421875 L 11.234375 -10.1875 Z M 18.109375 -10.1875 "/></g></g></g><g fill="#eca9ff" fill-opacity="1"><g transform="translate(215.51128, 208.220977)"><g><path d="M 9.28125 -27.953125 L 9.28125 0 L 2.46875 0 L 2.46875 -27.953125 Z M 9.28125 -27.953125 "/></g></g></g><g fill="#a64cc0" fill-opacity="1"><g transform="translate(227.25825, 208.220977)"><g><path d="M 11.5 0.3125 C 9.5625 0.3125 7.835938 -0.015625 6.328125 -0.671875 C 4.816406 -1.335938 3.625 -2.25 2.75 -3.40625 C 1.875 -4.5625 1.382812 -5.851562 1.28125 -7.28125 L 8 -7.28125 C 8.082031 -6.507812 8.441406 -5.882812 9.078125 -5.40625 C 9.710938 -4.9375 10.492188 -4.703125 11.421875 -4.703125 C 12.273438 -4.703125 12.929688 -4.863281 13.390625 -5.1875 C 13.859375 -5.519531 14.09375 -5.953125 14.09375 -6.484375 C 14.09375 -7.117188 13.757812 -7.585938 13.09375 -7.890625 C 12.4375 -8.203125 11.363281 -8.546875 9.875 -8.921875 C 8.28125 -9.285156 6.953125 -9.671875 5.890625 -10.078125 C 4.828125 -10.492188 3.910156 -11.144531 3.140625 -12.03125 C 2.367188 -12.925781 1.984375 -14.128906 1.984375 -15.640625 C 1.984375 -16.921875 2.332031 -18.082031 3.03125 -19.125 C 3.738281 -20.175781 4.773438 -21.003906 6.140625 -21.609375 C 7.515625 -22.222656 9.144531 -22.53125 11.03125 -22.53125 C 13.8125 -22.53125 16.003906 -21.835938 17.609375 -20.453125 C 19.222656 -19.078125 20.148438 -17.25 20.390625 -14.96875 L 14.09375 -14.96875 C 13.988281 -15.738281 13.648438 -16.347656 13.078125 -16.796875 C 12.503906 -17.253906 11.753906 -17.484375 10.828125 -17.484375 C 10.035156 -17.484375 9.425781 -17.328125 9 -17.015625 C 8.570312 -16.710938 8.359375 -16.296875 8.359375 -15.765625 C 8.359375 -15.128906 8.695312 -14.648438 9.375 -14.328125 C 10.050781 -14.015625 11.109375 -13.695312 12.546875 -13.375 C 14.191406 -12.945312 15.53125 -12.523438 16.5625 -12.109375 C 17.59375 -11.703125 18.5 -11.039062 19.28125 -10.125 C 20.070312 -9.21875 20.476562 -7.992188 20.5 -6.453125 C 20.5 -5.148438 20.132812 -3.988281 19.40625 -2.96875 C 18.675781 -1.945312 17.628906 -1.144531 16.265625 -0.5625 C 14.898438 0.0195312 13.3125 0.3125 11.5 0.3125 Z M 11.5 0.3125 "/></g></g></g><g fill="#a64cc0" fill-opacity="1"><g transform="translate(249.47146, 208.220977)"><g><path d="M 24.40625 -22.21875 L 24.40625 0 L 17.59375 0 L 17.59375 -3.03125 C 16.90625 -2.039062 15.96875 -1.25 14.78125 -0.65625 C 13.601562 -0.0625 12.300781 0.234375 10.875 0.234375 C 9.175781 0.234375 7.675781 -0.140625 6.375 -0.890625 C 5.070312 -1.648438 4.0625 -2.742188 3.34375 -4.171875 C 2.625 -5.609375 2.265625 -7.296875 2.265625 -9.234375 L 2.265625 -22.21875 L 9.03125 -22.21875 L 9.03125 -10.15625 C 9.03125 -8.664062 9.414062 -7.507812 10.1875 -6.6875 C 10.957031 -5.863281 11.992188 -5.453125 13.296875 -5.453125 C 14.617188 -5.453125 15.664062 -5.863281 16.4375 -6.6875 C 17.207031 -7.507812 17.59375 -8.664062 17.59375 -10.15625 L 17.59375 -22.21875 Z M 24.40625 -22.21875 "/></g></g></g><g fill="#a64cc0" fill-opacity="1"><g transform="translate(276.302475, 208.220977)"><g><path d="M 9.28125 -18.515625 C 10.070312 -19.734375 11.0625 -20.691406 12.25 -21.390625 C 13.445312 -22.097656 14.78125 -22.453125 16.25 -22.453125 L 16.25 -15.25 L 14.375 -15.25 C 12.675781 -15.25 11.398438 -14.882812 10.546875 -14.15625 C 9.703125 -13.425781 9.28125 -12.144531 9.28125 -10.3125 L 9.28125 0 L 2.46875 0 L 2.46875 -22.21875 L 9.28125 -22.21875 Z M 9.28125 -18.515625 "/></g></g></g><g fill="#a64cc0" fill-opacity="1"><g transform="translate(293.340564, 208.220977)"><g><path d="M 23.40625 -11.46875 C 23.40625 -10.832031 23.367188 -10.164062 23.296875 -9.46875 L 7.890625 -9.46875 C 7.992188 -8.09375 8.4375 -7.039062 9.21875 -6.3125 C 10 -5.582031 10.960938 -5.21875 12.109375 -5.21875 C 13.804688 -5.21875 14.984375 -5.929688 15.640625 -7.359375 L 22.890625 -7.359375 C 22.515625 -5.898438 21.84375 -4.585938 20.875 -3.421875 C 19.90625 -2.253906 18.691406 -1.335938 17.234375 -0.671875 C 15.773438 -0.015625 14.144531 0.3125 12.34375 0.3125 C 10.164062 0.3125 8.226562 -0.148438 6.53125 -1.078125 C 4.832031 -2.003906 3.503906 -3.328125 2.546875 -5.046875 C 1.585938 -6.773438 1.109375 -8.796875 1.109375 -11.109375 C 1.109375 -13.421875 1.578125 -15.4375 2.515625 -17.15625 C 3.460938 -18.882812 4.785156 -20.210938 6.484375 -21.140625 C 8.179688 -22.066406 10.132812 -22.53125 12.34375 -22.53125 C 14.488281 -22.53125 16.394531 -22.078125 18.0625 -21.171875 C 19.738281 -20.273438 21.046875 -18.988281 21.984375 -17.3125 C 22.929688 -15.644531 23.40625 -13.695312 23.40625 -11.46875 Z M 16.4375 -13.25 C 16.4375 -14.425781 16.035156 -15.359375 15.234375 -16.046875 C 14.441406 -16.734375 13.453125 -17.078125 12.265625 -17.078125 C 11.117188 -17.078125 10.15625 -16.742188 9.375 -16.078125 C 8.59375 -15.421875 8.109375 -14.476562 7.921875 -13.25 Z M 16.4375 -13.25 "/></g></g></g></svg>